<mxfile host="65bd71144e">
    <diagram id="d83kzSXht3X1S-d5lUm-" name="Facade Picture">
        <mxGraphModel dx="1046" dy="771" grid="1" gridSize="10" guides="1" tooltips="1" connect="1" arrows="1" fold="1" page="1" pageScale="1" pageWidth="1100" pageHeight="850" math="0" shadow="0">
            <root>
                <mxCell id="0"/>
                <mxCell id="1" parent="0"/>
                <mxCell id="2" value="底層系統" style="shape=umlFrame;whiteSpace=wrap;html=1;width=120;height=30;boundedLbl=1;verticalAlign=middle;align=left;spacingLeft=5;direction=east;" parent="1" vertex="1">
                    <mxGeometry x="120" y="320" width="680" height="300" as="geometry"/>
                </mxCell>
                <mxCell id="11" value="" style="edgeStyle=orthogonalEdgeStyle;html=1;endArrow=open;endFill=0;" parent="1" source="3" target="4" edge="1">
                    <mxGeometry relative="1" as="geometry">
                        <Array as="points">
                            <mxPoint x="260" y="245"/>
                        </Array>
                    </mxGeometry>
                </mxCell>
                <mxCell id="16" value="" style="html=1;endArrow=open;endFill=0;edgeStyle=orthogonalEdgeStyle;" parent="1" source="3" target="7" edge="1">
                    <mxGeometry relative="1" as="geometry">
                        <Array as="points">
                            <mxPoint x="355" y="260"/>
                        </Array>
                    </mxGeometry>
                </mxCell>
                <mxCell id="17" value="" style="edgeStyle=orthogonalEdgeStyle;html=1;endArrow=open;endFill=0;entryX=1;entryY=0.5;entryDx=0;entryDy=0;" parent="1" source="3" target="6" edge="1">
                    <mxGeometry relative="1" as="geometry">
                        <Array as="points">
                            <mxPoint x="440" y="565"/>
                        </Array>
                    </mxGeometry>
                </mxCell>
                <mxCell id="19" value="" style="edgeStyle=orthogonalEdgeStyle;html=1;endArrow=open;endFill=0;" parent="1" source="3" target="9" edge="1">
                    <mxGeometry relative="1" as="geometry">
                        <mxPoint x="580" y="245" as="targetPoint"/>
                        <Array as="points">
                            <mxPoint x="460" y="565"/>
                        </Array>
                    </mxGeometry>
                </mxCell>
                <mxCell id="3" value="Facade" style="html=1;" parent="1" vertex="1">
                    <mxGeometry x="390" y="220" width="110" height="50" as="geometry"/>
                </mxCell>
                <mxCell id="4" value="功能A" style="html=1;" parent="1" vertex="1">
                    <mxGeometry x="160" y="390" width="110" height="50" as="geometry"/>
                </mxCell>
                <mxCell id="13" value="" style="edgeStyle=orthogonalEdgeStyle;html=1;endArrow=none;endFill=0;" parent="1" source="5" target="7" edge="1">
                    <mxGeometry relative="1" as="geometry"/>
                </mxCell>
                <mxCell id="5" value="物件&lt;span style=&quot;color: rgba(0 , 0 , 0 , 0) ; font-family: monospace ; font-size: 0px&quot;&gt;%3CmxGraphModel%3E%3Croot%3E%3CmxCell%20id%3D%220%22%2F%3E%3CmxCell%20id%3D%221%22%20parent%3D%220%22%2F%3E%3CmxCell%20id%3D%222%22%20value%3D%22%E5%8A%9F%E8%83%BDA%22%20style%3D%22html%3D1%3B%22%20vertex%3D%221%22%20parent%3D%221%22%3E%3CmxGeometry%20x%3D%22200%22%20y%3D%22400%22%20width%3D%22110%22%20height%3D%2250%22%20as%3D%22geometry%22%2F%3E%3C%2FmxCell%3E%3C%2Froot%3E%3C%2FmxGraphModel%3E&lt;/span&gt;" style="html=1;" parent="1" vertex="1">
                    <mxGeometry x="160" y="460" width="110" height="50" as="geometry"/>
                </mxCell>
                <mxCell id="12" value="" style="edgeStyle=orthogonalEdgeStyle;html=1;endArrow=block;endFill=0;" parent="1" source="6" target="5" edge="1">
                    <mxGeometry relative="1" as="geometry"/>
                </mxCell>
                <mxCell id="6" value="物件&lt;span style=&quot;color: rgba(0 , 0 , 0 , 0) ; font-family: monospace ; font-size: 0px&quot;&gt;%3CmxGraphModel%3E%3Croot%3E%3CmxCell%20id%3D%220%22%2F%3E%3CmxCell%20id%3D%221%22%20parent%3D%220%22%2F%3E%3CmxCell%20id%3D%222%22%20value%3D%22%E5%8A%9F%E8%83%BDA%22%20style%3D%22html%3D1%3B%22%20vertex%3D%221%22%20parent%3D%221%22%3E%3CmxGeometry%20x%3D%22200%22%20y%3D%22400%22%20width%3D%22110%22%20height%3D%2250%22%20as%3D%22geometry%22%2F%3E%3C%2FmxCell%3E%3C%2Froot%3E%3C%2FmxGraphModel%3E&lt;/span&gt;" style="html=1;" parent="1" vertex="1">
                    <mxGeometry x="300" y="540" width="110" height="50" as="geometry"/>
                </mxCell>
                <mxCell id="7" value="物件&lt;span style=&quot;color: rgba(0 , 0 , 0 , 0) ; font-family: monospace ; font-size: 0px&quot;&gt;%3CmxGraphModel%3E%3Croot%3E%3CmxCell%20id%3D%220%22%2F%3E%3CmxCell%20id%3D%221%22%20parent%3D%220%22%2F%3E%3CmxCell%20id%3D%222%22%20value%3D%22%E5%8A%9F%E8%83%BDA%22%20style%3D%22html%3D1%3B%22%20vertex%3D%221%22%20parent%3D%221%22%3E%3CmxGeometry%20x%3D%22200%22%20y%3D%22400%22%20width%3D%22110%22%20height%3D%2250%22%20as%3D%22geometry%22%2F%3E%3C%2FmxCell%3E%3C%2Froot%3E%3C%2FmxGraphModel%3E&lt;/span&gt;" style="html=1;" parent="1" vertex="1">
                    <mxGeometry x="300" y="460" width="110" height="50" as="geometry"/>
                </mxCell>
                <mxCell id="8" value="物件&lt;span style=&quot;color: rgba(0 , 0 , 0 , 0) ; font-family: monospace ; font-size: 0px&quot;&gt;%3CmxGraphModel%3E%3Croot%3E%3CmxCell%20id%3D%220%22%2F%3E%3CmxCell%20id%3D%221%22%20parent%3D%220%22%2F%3E%3CmxCell%20id%3D%222%22%20value%3D%22%E5%8A%9F%E8%83%BDA%22%20style%3D%22html%3D1%3B%22%20vertex%3D%221%22%20parent%3D%221%22%3E%3CmxGeometry%20x%3D%22200%22%20y%3D%22400%22%20width%3D%22110%22%20height%3D%2250%22%20as%3D%22geometry%22%2F%3E%3C%2FmxCell%3E%3C%2Froot%3E%3C%2FmxGraphModel%3E&lt;/span&gt;" style="html=1;" parent="1" vertex="1">
                    <mxGeometry x="590" y="375" width="110" height="50" as="geometry"/>
                </mxCell>
                <mxCell id="14" value="" style="edgeStyle=orthogonalEdgeStyle;html=1;endArrow=block;endFill=0;" parent="1" source="9" target="8" edge="1">
                    <mxGeometry relative="1" as="geometry"/>
                </mxCell>
                <mxCell id="9" value="物件&lt;span style=&quot;color: rgba(0 , 0 , 0 , 0) ; font-family: monospace ; font-size: 0px&quot;&gt;%3CmxGraphModel%3E%3Croot%3E%3CmxCell%20id%3D%220%22%2F%3E%3CmxCell%20id%3D%221%22%20parent%3D%220%22%2F%3E%3CmxCell%20id%3D%222%22%20value%3D%22%E5%8A%9F%E8%83%BDA%22%20style%3D%22html%3D1%3B%22%20vertex%3D%221%22%20parent%3D%221%22%3E%3CmxGeometry%20x%3D%22200%22%20y%3D%22400%22%20width%3D%22110%22%20height%3D%2250%22%20as%3D%22geometry%22%2F%3E%3C%2FmxCell%3E%3C%2Froot%3E%3C%2FmxGraphModel%3E&lt;/span&gt;" style="html=1;" parent="1" vertex="1">
                    <mxGeometry x="520" y="540" width="110" height="50" as="geometry"/>
                </mxCell>
                <mxCell id="15" value="" style="edgeStyle=orthogonalEdgeStyle;html=1;endArrow=block;endFill=0;" parent="1" source="10" target="8" edge="1">
                    <mxGeometry relative="1" as="geometry"/>
                </mxCell>
                <mxCell id="10" value="物件&lt;span style=&quot;color: rgba(0 , 0 , 0 , 0) ; font-family: monospace ; font-size: 0px&quot;&gt;%3CmxGraphModel%3E%3Croot%3E%3CmxCell%20id%3D%220%22%2F%3E%3CmxCell%20id%3D%221%22%20parent%3D%220%22%2F%3E%3CmxCell%20id%3D%222%22%20value%3D%22%E5%8A%9F%E8%83%BDA%22%20style%3D%22html%3D1%3B%22%20vertex%3D%221%22%20parent%3D%221%22%3E%3CmxGeometry%20x%3D%22200%22%20y%3D%22400%22%20width%3D%22110%22%20height%3D%2250%22%20as%3D%22geometry%22%2F%3E%3C%2FmxCell%3E%3C%2Froot%3E%3C%2FmxGraphModel%3E&lt;/span&gt;" style="html=1;" parent="1" vertex="1">
                    <mxGeometry x="660" y="540" width="110" height="50" as="geometry"/>
                </mxCell>
            </root>
        </mxGraphModel>
    </diagram>
    <diagram id="arzLUADW8bWdLVG12Uhc" name="Compare">
        <mxGraphModel dx="1046" dy="771" grid="1" gridSize="10" guides="1" tooltips="1" connect="1" arrows="1" fold="1" page="1" pageScale="1" pageWidth="1100" pageHeight="850" math="0" shadow="0">
            <root>
                <mxCell id="YScQiTneVQuB_FH6bq4R-0"/>
                <mxCell id="YScQiTneVQuB_FH6bq4R-1" parent="YScQiTneVQuB_FH6bq4R-0"/>
                <mxCell id="YScQiTneVQuB_FH6bq4R-28" value="" style="group" vertex="1" connectable="0" parent="YScQiTneVQuB_FH6bq4R-1">
                    <mxGeometry x="40" y="410" width="490" height="260" as="geometry"/>
                </mxCell>
                <mxCell id="YScQiTneVQuB_FH6bq4R-16" value="使用Facade模式" style="shape=umlFrame;whiteSpace=wrap;html=1;width=130;height=30;boundedLbl=1;verticalAlign=middle;align=left;spacingLeft=5;" vertex="1" parent="YScQiTneVQuB_FH6bq4R-28">
                    <mxGeometry width="490" height="260" as="geometry"/>
                </mxCell>
                <mxCell id="YScQiTneVQuB_FH6bq4R-17" value="ClientA" style="html=1;" vertex="1" parent="YScQiTneVQuB_FH6bq4R-28">
                    <mxGeometry x="20" y="65" width="110" height="50" as="geometry"/>
                </mxCell>
                <mxCell id="YScQiTneVQuB_FH6bq4R-18" value="ClientB" style="html=1;strokeColor=#FFFFFF;" vertex="1" parent="YScQiTneVQuB_FH6bq4R-28">
                    <mxGeometry x="20" y="160" width="110" height="50" as="geometry"/>
                </mxCell>
                <mxCell id="YScQiTneVQuB_FH6bq4R-19" value="DB" style="html=1;" vertex="1" parent="YScQiTneVQuB_FH6bq4R-28">
                    <mxGeometry x="360" y="40" width="110" height="50" as="geometry"/>
                </mxCell>
                <mxCell id="YScQiTneVQuB_FH6bq4R-20" value="Model" style="html=1;" vertex="1" parent="YScQiTneVQuB_FH6bq4R-28">
                    <mxGeometry x="360" y="110" width="110" height="50" as="geometry"/>
                </mxCell>
                <mxCell id="YScQiTneVQuB_FH6bq4R-21" value="Element" style="html=1;" vertex="1" parent="YScQiTneVQuB_FH6bq4R-28">
                    <mxGeometry x="360" y="180" width="110" height="50" as="geometry"/>
                </mxCell>
                <mxCell id="YScQiTneVQuB_FH6bq4R-23" value="" style="edgeStyle=none;html=1;endArrow=open;endFill=0;strokeColor=#FFFF66;" edge="1" parent="YScQiTneVQuB_FH6bq4R-28" source="YScQiTneVQuB_FH6bq4R-22" target="YScQiTneVQuB_FH6bq4R-19">
                    <mxGeometry relative="1" as="geometry"/>
                </mxCell>
                <mxCell id="YScQiTneVQuB_FH6bq4R-24" value="" style="edgeStyle=none;html=1;endArrow=open;endFill=0;strokeColor=#FFFF66;" edge="1" parent="YScQiTneVQuB_FH6bq4R-28" source="YScQiTneVQuB_FH6bq4R-22" target="YScQiTneVQuB_FH6bq4R-20">
                    <mxGeometry relative="1" as="geometry"/>
                </mxCell>
                <mxCell id="YScQiTneVQuB_FH6bq4R-25" value="" style="edgeStyle=none;html=1;endArrow=open;endFill=0;strokeColor=#FFFF66;" edge="1" parent="YScQiTneVQuB_FH6bq4R-28" source="YScQiTneVQuB_FH6bq4R-22" target="YScQiTneVQuB_FH6bq4R-21">
                    <mxGeometry relative="1" as="geometry"/>
                </mxCell>
                <mxCell id="YScQiTneVQuB_FH6bq4R-22" value="Facade" style="html=1;strokeColor=#FFFF66;" vertex="1" parent="YScQiTneVQuB_FH6bq4R-28">
                    <mxGeometry x="190" y="110" width="110" height="50" as="geometry"/>
                </mxCell>
                <mxCell id="YScQiTneVQuB_FH6bq4R-26" value="" style="edgeStyle=none;html=1;endArrow=open;endFill=0;strokeColor=#FFFFFF;" edge="1" parent="YScQiTneVQuB_FH6bq4R-28" source="YScQiTneVQuB_FH6bq4R-17" target="YScQiTneVQuB_FH6bq4R-22">
                    <mxGeometry relative="1" as="geometry"/>
                </mxCell>
                <mxCell id="YScQiTneVQuB_FH6bq4R-27" value="" style="edgeStyle=none;html=1;endArrow=open;endFill=0;strokeColor=#FFFFFF;" edge="1" parent="YScQiTneVQuB_FH6bq4R-28" source="YScQiTneVQuB_FH6bq4R-18" target="YScQiTneVQuB_FH6bq4R-22">
                    <mxGeometry relative="1" as="geometry"/>
                </mxCell>
                <mxCell id="YScQiTneVQuB_FH6bq4R-29" value="" style="group" vertex="1" connectable="0" parent="YScQiTneVQuB_FH6bq4R-1">
                    <mxGeometry x="50" y="40" width="470" height="290" as="geometry"/>
                </mxCell>
                <mxCell id="YScQiTneVQuB_FH6bq4R-2" value="一般的程式使用情況" style="shape=umlFrame;whiteSpace=wrap;html=1;width=130;height=30;boundedLbl=1;verticalAlign=middle;align=left;spacingLeft=5;" vertex="1" parent="YScQiTneVQuB_FH6bq4R-29">
                    <mxGeometry width="470" height="290" as="geometry"/>
                </mxCell>
                <mxCell id="YScQiTneVQuB_FH6bq4R-3" value="ClientA" style="html=1;" vertex="1" parent="YScQiTneVQuB_FH6bq4R-29">
                    <mxGeometry x="30" y="90" width="110" height="50" as="geometry"/>
                </mxCell>
                <mxCell id="YScQiTneVQuB_FH6bq4R-4" value="ClientB" style="html=1;strokeColor=#FFFF66;" vertex="1" parent="YScQiTneVQuB_FH6bq4R-29">
                    <mxGeometry x="30" y="170" width="110" height="50" as="geometry"/>
                </mxCell>
                <mxCell id="YScQiTneVQuB_FH6bq4R-5" value="DB" style="html=1;" vertex="1" parent="YScQiTneVQuB_FH6bq4R-29">
                    <mxGeometry x="310" y="60" width="110" height="50" as="geometry"/>
                </mxCell>
                <mxCell id="YScQiTneVQuB_FH6bq4R-8" value="" style="html=1;endArrow=open;endFill=0;" edge="1" parent="YScQiTneVQuB_FH6bq4R-29" source="YScQiTneVQuB_FH6bq4R-3" target="YScQiTneVQuB_FH6bq4R-5">
                    <mxGeometry relative="1" as="geometry"/>
                </mxCell>
                <mxCell id="YScQiTneVQuB_FH6bq4R-11" value="" style="html=1;endArrow=open;endFill=0;strokeColor=#FFFF66;" edge="1" parent="YScQiTneVQuB_FH6bq4R-29" source="YScQiTneVQuB_FH6bq4R-4" target="YScQiTneVQuB_FH6bq4R-5">
                    <mxGeometry relative="1" as="geometry"/>
                </mxCell>
                <mxCell id="YScQiTneVQuB_FH6bq4R-6" value="Model" style="html=1;" vertex="1" parent="YScQiTneVQuB_FH6bq4R-29">
                    <mxGeometry x="310" y="130" width="110" height="50" as="geometry"/>
                </mxCell>
                <mxCell id="YScQiTneVQuB_FH6bq4R-9" value="" style="html=1;endArrow=open;endFill=0;" edge="1" parent="YScQiTneVQuB_FH6bq4R-29" source="YScQiTneVQuB_FH6bq4R-3" target="YScQiTneVQuB_FH6bq4R-6">
                    <mxGeometry relative="1" as="geometry"/>
                </mxCell>
                <mxCell id="YScQiTneVQuB_FH6bq4R-13" value="" style="html=1;endArrow=open;endFill=0;strokeColor=#FFFF66;" edge="1" parent="YScQiTneVQuB_FH6bq4R-29" source="YScQiTneVQuB_FH6bq4R-4" target="YScQiTneVQuB_FH6bq4R-6">
                    <mxGeometry relative="1" as="geometry"/>
                </mxCell>
                <mxCell id="YScQiTneVQuB_FH6bq4R-15" value="" style="html=1;endArrow=open;endFill=0;strokeColor=#FFFF66;" edge="1" parent="YScQiTneVQuB_FH6bq4R-29" source="YScQiTneVQuB_FH6bq4R-4" target="YScQiTneVQuB_FH6bq4R-7">
                    <mxGeometry relative="1" as="geometry">
                        <mxPoint x="530" y="255" as="sourcePoint"/>
                    </mxGeometry>
                </mxCell>
                <mxCell id="YScQiTneVQuB_FH6bq4R-7" value="Element" style="html=1;" vertex="1" parent="YScQiTneVQuB_FH6bq4R-29">
                    <mxGeometry x="310" y="200" width="110" height="50" as="geometry"/>
                </mxCell>
                <mxCell id="YScQiTneVQuB_FH6bq4R-10" value="" style="html=1;endArrow=open;endFill=0;" edge="1" parent="YScQiTneVQuB_FH6bq4R-29" source="YScQiTneVQuB_FH6bq4R-3" target="YScQiTneVQuB_FH6bq4R-7">
                    <mxGeometry relative="1" as="geometry"/>
                </mxCell>
            </root>
        </mxGraphModel>
    </diagram>
    <diagram id="LBSRi7ktHxspyd5TfRgS" name="Example">
        <mxGraphModel dx="1046" dy="771" grid="1" gridSize="10" guides="1" tooltips="1" connect="1" arrows="1" fold="1" page="1" pageScale="1" pageWidth="1100" pageHeight="850" math="0" shadow="0">
            <root>
                <mxCell id="7oGd_SsefvQ4l5wGMKgt-0"/>
                <mxCell id="7oGd_SsefvQ4l5wGMKgt-1" parent="7oGd_SsefvQ4l5wGMKgt-0"/>
                <mxCell id="7oGd_SsefvQ4l5wGMKgt-2" value="&lt;&lt;interface&gt;&gt;&#10;InterfaceDB" style="swimlane;fontStyle=1;align=center;verticalAlign=top;childLayout=stackLayout;horizontal=1;startSize=40;horizontalStack=0;resizeParent=1;resizeParentMax=0;resizeLast=0;collapsible=1;marginBottom=0;" vertex="1" parent="7oGd_SsefvQ4l5wGMKgt-1">
                    <mxGeometry x="200" y="440" width="160" height="90" as="geometry"/>
                </mxCell>
                <mxCell id="7oGd_SsefvQ4l5wGMKgt-4" value="" style="line;strokeWidth=1;fillColor=none;align=left;verticalAlign=middle;spacingTop=-1;spacingLeft=3;spacingRight=3;rotatable=0;labelPosition=right;points=[];portConstraint=eastwest;" vertex="1" parent="7oGd_SsefvQ4l5wGMKgt-2">
                    <mxGeometry y="40" width="160" height="8" as="geometry"/>
                </mxCell>
                <mxCell id="7oGd_SsefvQ4l5wGMKgt-5" value="+ MethodA()&#10;+ MethodB()" style="text;strokeColor=none;fillColor=none;align=left;verticalAlign=top;spacingLeft=4;spacingRight=4;overflow=hidden;rotatable=0;points=[[0,0.5],[1,0.5]];portConstraint=eastwest;" vertex="1" parent="7oGd_SsefvQ4l5wGMKgt-2">
                    <mxGeometry y="48" width="160" height="42" as="geometry"/>
                </mxCell>
                <mxCell id="7oGd_SsefvQ4l5wGMKgt-89" value="" style="edgeStyle=none;html=1;endArrow=open;endFill=0;" edge="1" parent="7oGd_SsefvQ4l5wGMKgt-1" source="7oGd_SsefvQ4l5wGMKgt-74" target="7oGd_SsefvQ4l5wGMKgt-2">
                    <mxGeometry relative="1" as="geometry">
                        <mxPoint x="270" y="420" as="sourcePoint"/>
                        <mxPoint x="337.62295081967227" y="440" as="targetPoint"/>
                    </mxGeometry>
                </mxCell>
                <mxCell id="7oGd_SsefvQ4l5wGMKgt-17" value="" style="edgeStyle=none;html=1;endArrow=block;endFill=0;" edge="1" parent="7oGd_SsefvQ4l5wGMKgt-1" source="7oGd_SsefvQ4l5wGMKgt-13" target="7oGd_SsefvQ4l5wGMKgt-5">
                    <mxGeometry relative="1" as="geometry"/>
                </mxCell>
                <mxCell id="7oGd_SsefvQ4l5wGMKgt-13" value="db" style="swimlane;fontStyle=1;align=center;verticalAlign=top;childLayout=stackLayout;horizontal=1;startSize=26;horizontalStack=0;resizeParent=1;resizeParentMax=0;resizeLast=0;collapsible=1;marginBottom=0;" vertex="1" parent="7oGd_SsefvQ4l5wGMKgt-1">
                    <mxGeometry x="200" y="555" width="160" height="34" as="geometry"/>
                </mxCell>
                <mxCell id="7oGd_SsefvQ4l5wGMKgt-15" value="" style="line;strokeWidth=1;fillColor=none;align=left;verticalAlign=middle;spacingTop=-1;spacingLeft=3;spacingRight=3;rotatable=0;labelPosition=right;points=[];portConstraint=eastwest;" vertex="1" parent="7oGd_SsefvQ4l5wGMKgt-13">
                    <mxGeometry y="26" width="160" height="8" as="geometry"/>
                </mxCell>
                <mxCell id="7oGd_SsefvQ4l5wGMKgt-36" value="&lt;&lt;interface&gt;&gt;&#10;InterfaceModel" style="swimlane;fontStyle=1;align=center;verticalAlign=top;childLayout=stackLayout;horizontal=1;startSize=40;horizontalStack=0;resizeParent=1;resizeParentMax=0;resizeLast=0;collapsible=1;marginBottom=0;" vertex="1" parent="7oGd_SsefvQ4l5wGMKgt-1">
                    <mxGeometry x="380" y="440" width="180" height="90" as="geometry"/>
                </mxCell>
                <mxCell id="7oGd_SsefvQ4l5wGMKgt-37" value="" style="line;strokeWidth=1;fillColor=none;align=left;verticalAlign=middle;spacingTop=-1;spacingLeft=3;spacingRight=3;rotatable=0;labelPosition=right;points=[];portConstraint=eastwest;" vertex="1" parent="7oGd_SsefvQ4l5wGMKgt-36">
                    <mxGeometry y="40" width="180" height="8" as="geometry"/>
                </mxCell>
                <mxCell id="7oGd_SsefvQ4l5wGMKgt-38" value="+ MethodA()&#10;+ MethodB()" style="text;strokeColor=none;fillColor=none;align=left;verticalAlign=top;spacingLeft=4;spacingRight=4;overflow=hidden;rotatable=0;points=[[0,0.5],[1,0.5]];portConstraint=eastwest;" vertex="1" parent="7oGd_SsefvQ4l5wGMKgt-36">
                    <mxGeometry y="48" width="180" height="42" as="geometry"/>
                </mxCell>
                <mxCell id="7oGd_SsefvQ4l5wGMKgt-42" value="" style="edgeStyle=none;html=1;endArrow=block;endFill=0;" edge="1" parent="7oGd_SsefvQ4l5wGMKgt-1" source="7oGd_SsefvQ4l5wGMKgt-43" target="7oGd_SsefvQ4l5wGMKgt-38">
                    <mxGeometry relative="1" as="geometry"/>
                </mxCell>
                <mxCell id="7oGd_SsefvQ4l5wGMKgt-43" value="model" style="swimlane;fontStyle=1;align=center;verticalAlign=top;childLayout=stackLayout;horizontal=1;startSize=26;horizontalStack=0;resizeParent=1;resizeParentMax=0;resizeLast=0;collapsible=1;marginBottom=0;" vertex="1" parent="7oGd_SsefvQ4l5wGMKgt-1">
                    <mxGeometry x="380" y="555" width="180" height="34" as="geometry"/>
                </mxCell>
                <mxCell id="7oGd_SsefvQ4l5wGMKgt-44" value="" style="line;strokeWidth=1;fillColor=none;align=left;verticalAlign=middle;spacingTop=-1;spacingLeft=3;spacingRight=3;rotatable=0;labelPosition=right;points=[];portConstraint=eastwest;" vertex="1" parent="7oGd_SsefvQ4l5wGMKgt-43">
                    <mxGeometry y="26" width="180" height="8" as="geometry"/>
                </mxCell>
                <mxCell id="7oGd_SsefvQ4l5wGMKgt-46" value="&lt;&lt;interface&gt;&gt;&#10;InterfaceElement" style="swimlane;fontStyle=1;align=center;verticalAlign=top;childLayout=stackLayout;horizontal=1;startSize=40;horizontalStack=0;resizeParent=1;resizeParentMax=0;resizeLast=0;collapsible=1;marginBottom=0;" vertex="1" parent="7oGd_SsefvQ4l5wGMKgt-1">
                    <mxGeometry x="580" y="440" width="200" height="90" as="geometry"/>
                </mxCell>
                <mxCell id="7oGd_SsefvQ4l5wGMKgt-47" value="" style="line;strokeWidth=1;fillColor=none;align=left;verticalAlign=middle;spacingTop=-1;spacingLeft=3;spacingRight=3;rotatable=0;labelPosition=right;points=[];portConstraint=eastwest;" vertex="1" parent="7oGd_SsefvQ4l5wGMKgt-46">
                    <mxGeometry y="40" width="200" height="8" as="geometry"/>
                </mxCell>
                <mxCell id="7oGd_SsefvQ4l5wGMKgt-48" value="+ MethodA()&#10;+ MethodB()" style="text;strokeColor=none;fillColor=none;align=left;verticalAlign=top;spacingLeft=4;spacingRight=4;overflow=hidden;rotatable=0;points=[[0,0.5],[1,0.5]];portConstraint=eastwest;" vertex="1" parent="7oGd_SsefvQ4l5wGMKgt-46">
                    <mxGeometry y="48" width="200" height="42" as="geometry"/>
                </mxCell>
                <mxCell id="7oGd_SsefvQ4l5wGMKgt-85" value="" style="edgeStyle=none;html=1;endArrow=open;endFill=0;" edge="1" parent="7oGd_SsefvQ4l5wGMKgt-1" source="7oGd_SsefvQ4l5wGMKgt-74" target="7oGd_SsefvQ4l5wGMKgt-46">
                    <mxGeometry relative="1" as="geometry">
                        <mxPoint x="700" y="420" as="sourcePoint"/>
                        <mxPoint x="616.311475409836" y="440" as="targetPoint"/>
                    </mxGeometry>
                </mxCell>
                <mxCell id="7oGd_SsefvQ4l5wGMKgt-52" value="" style="edgeStyle=none;html=1;endArrow=block;endFill=0;" edge="1" parent="7oGd_SsefvQ4l5wGMKgt-1" source="7oGd_SsefvQ4l5wGMKgt-53" target="7oGd_SsefvQ4l5wGMKgt-48">
                    <mxGeometry relative="1" as="geometry"/>
                </mxCell>
                <mxCell id="7oGd_SsefvQ4l5wGMKgt-53" value="element" style="swimlane;fontStyle=1;align=center;verticalAlign=top;childLayout=stackLayout;horizontal=1;startSize=26;horizontalStack=0;resizeParent=1;resizeParentMax=0;resizeLast=0;collapsible=1;marginBottom=0;" vertex="1" parent="7oGd_SsefvQ4l5wGMKgt-1">
                    <mxGeometry x="580" y="555" width="200" height="34" as="geometry"/>
                </mxCell>
                <mxCell id="7oGd_SsefvQ4l5wGMKgt-54" value="" style="line;strokeWidth=1;fillColor=none;align=left;verticalAlign=middle;spacingTop=-1;spacingLeft=3;spacingRight=3;rotatable=0;labelPosition=right;points=[];portConstraint=eastwest;" vertex="1" parent="7oGd_SsefvQ4l5wGMKgt-53">
                    <mxGeometry y="26" width="200" height="8" as="geometry"/>
                </mxCell>
                <mxCell id="7oGd_SsefvQ4l5wGMKgt-66" value="&lt;&lt;interface&gt;&gt;&#10;InterfaceFacadeA" style="swimlane;fontStyle=1;align=center;verticalAlign=top;childLayout=stackLayout;horizontal=1;startSize=40;horizontalStack=0;resizeParent=1;resizeParentMax=0;resizeLast=0;collapsible=1;marginBottom=0;" vertex="1" parent="7oGd_SsefvQ4l5wGMKgt-1">
                    <mxGeometry x="260" y="190" width="200" height="80" as="geometry"/>
                </mxCell>
                <mxCell id="7oGd_SsefvQ4l5wGMKgt-67" value="" style="line;strokeWidth=1;fillColor=none;align=left;verticalAlign=middle;spacingTop=-1;spacingLeft=3;spacingRight=3;rotatable=0;labelPosition=right;points=[];portConstraint=eastwest;" vertex="1" parent="7oGd_SsefvQ4l5wGMKgt-66">
                    <mxGeometry y="40" width="200" height="8" as="geometry"/>
                </mxCell>
                <mxCell id="7oGd_SsefvQ4l5wGMKgt-68" value="+ UseMethodA()" style="text;strokeColor=none;fillColor=none;align=left;verticalAlign=top;spacingLeft=4;spacingRight=4;overflow=hidden;rotatable=0;points=[[0,0.5],[1,0.5]];portConstraint=eastwest;" vertex="1" parent="7oGd_SsefvQ4l5wGMKgt-66">
                    <mxGeometry y="48" width="200" height="32" as="geometry"/>
                </mxCell>
                <mxCell id="7oGd_SsefvQ4l5wGMKgt-69" value="&lt;&lt;interface&gt;&gt;&#10;InterfaceFacadeB" style="swimlane;fontStyle=1;align=center;verticalAlign=top;childLayout=stackLayout;horizontal=1;startSize=40;horizontalStack=0;resizeParent=1;resizeParentMax=0;resizeLast=0;collapsible=1;marginBottom=0;" vertex="1" parent="7oGd_SsefvQ4l5wGMKgt-1">
                    <mxGeometry x="500" y="190" width="200" height="80" as="geometry"/>
                </mxCell>
                <mxCell id="7oGd_SsefvQ4l5wGMKgt-70" value="" style="line;strokeWidth=1;fillColor=none;align=left;verticalAlign=middle;spacingTop=-1;spacingLeft=3;spacingRight=3;rotatable=0;labelPosition=right;points=[];portConstraint=eastwest;" vertex="1" parent="7oGd_SsefvQ4l5wGMKgt-69">
                    <mxGeometry y="40" width="200" height="8" as="geometry"/>
                </mxCell>
                <mxCell id="7oGd_SsefvQ4l5wGMKgt-71" value="+ UseMethodB()" style="text;strokeColor=none;fillColor=none;align=left;verticalAlign=top;spacingLeft=4;spacingRight=4;overflow=hidden;rotatable=0;points=[[0,0.5],[1,0.5]];portConstraint=eastwest;" vertex="1" parent="7oGd_SsefvQ4l5wGMKgt-69">
                    <mxGeometry y="48" width="200" height="32" as="geometry"/>
                </mxCell>
                <mxCell id="7oGd_SsefvQ4l5wGMKgt-77" value="" style="edgeStyle=none;html=1;endArrow=block;endFill=0;" edge="1" parent="7oGd_SsefvQ4l5wGMKgt-1" source="7oGd_SsefvQ4l5wGMKgt-74" target="7oGd_SsefvQ4l5wGMKgt-68">
                    <mxGeometry relative="1" as="geometry"/>
                </mxCell>
                <mxCell id="7oGd_SsefvQ4l5wGMKgt-78" value="" style="edgeStyle=none;html=1;endArrow=block;endFill=0;" edge="1" parent="7oGd_SsefvQ4l5wGMKgt-1" source="7oGd_SsefvQ4l5wGMKgt-74" target="7oGd_SsefvQ4l5wGMKgt-71">
                    <mxGeometry relative="1" as="geometry"/>
                </mxCell>
                <mxCell id="7oGd_SsefvQ4l5wGMKgt-74" value="facade" style="swimlane;fontStyle=1;align=center;verticalAlign=top;childLayout=stackLayout;horizontal=1;startSize=30;horizontalStack=0;resizeParent=1;resizeParentMax=0;resizeLast=0;collapsible=1;marginBottom=0;" vertex="1" parent="7oGd_SsefvQ4l5wGMKgt-1">
                    <mxGeometry x="370" y="315" width="200" height="80" as="geometry"/>
                </mxCell>
                <mxCell id="7oGd_SsefvQ4l5wGMKgt-75" value="" style="line;strokeWidth=1;fillColor=none;align=left;verticalAlign=middle;spacingTop=-1;spacingLeft=3;spacingRight=3;rotatable=0;labelPosition=right;points=[];portConstraint=eastwest;" vertex="1" parent="7oGd_SsefvQ4l5wGMKgt-74">
                    <mxGeometry y="30" width="200" height="8" as="geometry"/>
                </mxCell>
                <mxCell id="7oGd_SsefvQ4l5wGMKgt-76" value="+ UseMethodA()&#10;+ UseMethodB()" style="text;strokeColor=none;fillColor=none;align=left;verticalAlign=top;spacingLeft=4;spacingRight=4;overflow=hidden;rotatable=0;points=[[0,0.5],[1,0.5]];portConstraint=eastwest;" vertex="1" parent="7oGd_SsefvQ4l5wGMKgt-74">
                    <mxGeometry y="38" width="200" height="42" as="geometry"/>
                </mxCell>
                <mxCell id="7oGd_SsefvQ4l5wGMKgt-81" value="" style="edgeStyle=none;html=1;endArrow=open;endFill=0;" edge="1" parent="7oGd_SsefvQ4l5wGMKgt-1" source="7oGd_SsefvQ4l5wGMKgt-76" target="7oGd_SsefvQ4l5wGMKgt-36">
                    <mxGeometry relative="1" as="geometry">
                        <mxPoint x="470" y="440" as="targetPoint"/>
                    </mxGeometry>
                </mxCell>
                <mxCell id="7oGd_SsefvQ4l5wGMKgt-92" value="" style="edgeStyle=none;html=1;endArrow=open;endFill=0;" edge="1" parent="7oGd_SsefvQ4l5wGMKgt-1" source="7oGd_SsefvQ4l5wGMKgt-90" target="7oGd_SsefvQ4l5wGMKgt-66">
                    <mxGeometry relative="1" as="geometry">
                        <mxPoint x="370" y="100.41666666666663" as="targetPoint"/>
                    </mxGeometry>
                </mxCell>
                <mxCell id="7oGd_SsefvQ4l5wGMKgt-90" value="ClientA" style="html=1;" vertex="1" parent="7oGd_SsefvQ4l5wGMKgt-1">
                    <mxGeometry x="305" y="70" width="110" height="50" as="geometry"/>
                </mxCell>
                <mxCell id="7oGd_SsefvQ4l5wGMKgt-93" value="" style="edgeStyle=none;html=1;endArrow=open;endFill=0;" edge="1" parent="7oGd_SsefvQ4l5wGMKgt-1" source="7oGd_SsefvQ4l5wGMKgt-91" target="7oGd_SsefvQ4l5wGMKgt-69">
                    <mxGeometry relative="1" as="geometry">
                        <mxPoint x="370" y="123.16666666666663" as="targetPoint"/>
                    </mxGeometry>
                </mxCell>
                <mxCell id="7oGd_SsefvQ4l5wGMKgt-91" value="ClientB" style="html=1;" vertex="1" parent="7oGd_SsefvQ4l5wGMKgt-1">
                    <mxGeometry x="545" y="70" width="110" height="50" as="geometry"/>
                </mxCell>
            </root>
        </mxGraphModel>
    </diagram>
</mxfile>